# Made in Blockbench 4.11.2
mtllib Ground.mtl

o cube
v 0.625 0.0625 0.625
v 0.625 0.0625 -0.625
v 0.625 0 0.625
v 0.625 0 -0.625
v -0.625 0.0625 0.625
v -0.625 0.0625 -0.625
v -0.625 0 0.625
v -0.625 0 -0.625
vt 0.640625 0.984375
vt 0.640625 1
vt 0.328125 1
vt 0.328125 0.984375
vt 0.640625 0.953125
vt 0.640625 0.96875
vt 0.328125 0.96875
vt 0.328125 0.953125
vt 0.3125 0.6875
vt 0.3125 1
vt 0 1
vt 0 0.6875
vt 0.3125 0.359375
vt 0.3125 0.671875
vt 0 0.671875
vt 0 0.359375
vt 0.640625 0.921875
vt 0.640625 0.9375
vt 0.328125 0.9375
vt 0.328125 0.921875
vt 0.640625 0.890625
vt 0.640625 0.90625
vt 0.328125 0.90625
vt 0.328125 0.890625
vn 1 0 0
vn -1 0 0
vn 0 1 0
vn 0 -1 0
vn 0 0 1
vn 0 0 -1
usemtl m_c9ce5e53-591a-0451-2dac-003ab8a27972
f 4/1/1 2/2/1 1/3/1 3/4/1
f 7/5/2 5/6/2 6/7/2 8/8/2
f 1/9/3 2/10/3 6/11/3 5/12/3
f 4/13/4 3/14/4 7/15/4 8/16/4
f 3/17/5 1/18/5 5/19/5 7/20/5
f 8/21/6 6/22/6 2/23/6 4/24/6